<svg width="24" height="24" viewBox="0 0 24 24" fill="none" xmlns="http://www.w3.org/2000/svg">
<rect width="24" height="24" fill="#F5F5F5"/>
<g id="&#235;&#169;&#148;&#236;&#157;&#184;&#237;&#153;&#148;&#235;&#169;&#180; &#62; &#235;&#133;&#188;&#235;&#172;&#184; &#234;&#178;&#128;&#236;&#131;&#137; &#62; &#234;&#178;&#128;&#236;&#131;&#137; &#234;&#178;&#176;&#234;&#179;&#188; &#62; &#236;&#182;&#156;&#236;&#178;&#152; &#236;&#157;&#184;&#236;&#154;&#169; &#235;&#170;&#168;&#235;&#139;&#172;">
<rect width="1920" height="1080" transform="translate(-1216 -324.5)" fill="white"/>
<g id="Frame 2085670611" filter="url(#filter0_d_0_1)">
<rect x="-576" y="-42.5" width="640" height="516" rx="16" fill="white"/>
<g id="Frame 2085670611_2">
<g id="icon/close">
<path id="Vector" d="M18.6308 4.2347C18.9432 3.92248 19.4493 3.92236 19.7617 4.2347C20.074 4.54705 20.0739 5.05312 19.7617 5.36556L13.1288 11.9984L19.7656 18.6351C20.078 18.9475 20.078 19.4545 19.7656 19.7669C19.4532 20.0792 18.9471 20.0791 18.6347 19.7669L11.998 13.1292L5.36127 19.7669C5.04885 20.0791 4.54275 20.0792 4.23041 19.7669C3.91798 19.4545 3.918 18.9475 4.23041 18.6351L10.8662 11.9984L4.23431 5.36556C3.92209 5.05312 3.92196 4.54705 4.23431 4.2347C4.54667 3.92236 5.05275 3.92248 5.36517 4.2347L11.998 10.8675L18.6308 4.2347Z" fill="#33363D"/>
</g>
</g>
</g>
</g>
<defs>
<filter id="filter0_d_0_1" x="-596" y="-60.5" width="680" height="556" filterUnits="userSpaceOnUse" color-interpolation-filters="sRGB">
<feFlood flood-opacity="0" result="BackgroundImageFix"/>
<feColorMatrix in="SourceAlpha" type="matrix" values="0 0 0 0 0 0 0 0 0 0 0 0 0 0 0 0 0 0 127 0" result="hardAlpha"/>
<feOffset dy="2"/>
<feGaussianBlur stdDeviation="10"/>
<feComposite in2="hardAlpha" operator="out"/>
<feColorMatrix type="matrix" values="0 0 0 0 0.435294 0 0 0 0 0.247059 0 0 0 0 0.960784 0 0 0 0.15 0"/>
<feBlend mode="normal" in2="BackgroundImageFix" result="effect1_dropShadow_0_1"/>
<feBlend mode="normal" in="SourceGraphic" in2="effect1_dropShadow_0_1" result="shape"/>
</filter>
</defs>
</svg>
