<svg width="32" height="32" viewBox="0 0 32 32" fill="none" xmlns="http://www.w3.org/2000/svg">
<path d="M18.354 16.0033C18.354 17.34 17.2546 18.4226 15.8972 18.4226C14.5398 18.4226 13.4404 17.34 13.4404 16.0033C13.4404 14.6666 14.5398 13.584 15.8972 13.584C17.2546 13.584 18.354 14.6666 18.354 16.0033Z" stroke="#666666" stroke-width="1.4" stroke-linecap="round" stroke-linejoin="round"/>
<path d="M24.1555 18.2287L23.0768 17.6137C23.1955 17.0953 23.2678 16.5565 23.2678 16.0025C23.2678 15.4485 23.2007 14.9098 23.0768 14.3914L24.1555 13.7764C25.131 13.2224 25.4613 11.9975 24.8988 11.0368L24.8575 10.9606C24.2949 10.0051 23.051 9.67471 22.0755 10.2287L21.0433 10.8132C20.2381 10.0407 19.2575 9.446 18.1633 9.0953V8.00254C18.1633 6.89454 17.2498 6 16.1298 6H16.042C14.9169 6 14.0085 6.89454 14.0085 8.00254V8.99365C12.8265 9.30369 11.7633 9.88818 10.8962 10.6811L10.0962 10.2287C9.12075 9.67471 7.87689 10.0051 7.31431 10.9606L7.27302 11.0368C6.71044 11.9975 7.04592 13.2224 8.01624 13.7764L8.76979 14.2033C8.62011 14.7776 8.53237 15.3774 8.53237 16.0025C8.53237 16.6277 8.62011 17.2274 8.76979 17.8018L8.01624 18.2287C7.04592 18.7827 6.71044 20.0076 7.27302 20.9632L7.31431 21.0394C7.87689 21.9949 9.12075 22.3253 10.0962 21.7713L10.8962 21.3139C11.7685 22.1067 12.8317 22.6963 14.0085 23.0064V23.9975C14.0085 25.1055 14.9169 26 16.042 26H16.1298C17.2549 26 18.1633 25.1055 18.1633 23.9975V22.9047C19.2575 22.554 20.2433 21.9644 21.0433 21.1868L22.0755 21.7713C23.051 22.3253 24.2949 21.9949 24.8575 21.0394L24.8988 20.9632C25.4613 20.0076 25.1259 18.7827 24.1555 18.2287Z" stroke="#666666" stroke-width="1.4" stroke-linecap="round" stroke-linejoin="round"/>
</svg>
