<svg width="32" height="32" viewBox="0 0 32 32" fill="none" xmlns="http://www.w3.org/2000/svg">
<path d="M15.999 7C16.4408 7 16.7987 7.35807 16.7988 7.7998V15.2002H24.2002C24.6419 15.2003 24.9999 15.5583 25 16C25 16.4418 24.6419 16.7997 24.2002 16.7998H16.7988V24.2002C16.7988 24.642 16.4409 25 15.999 25C15.5573 24.9999 15.1992 24.642 15.1992 24.2002V16.7998H7.7998C7.35807 16.7997 7 16.4418 7 16C7.00011 15.5583 7.35813 15.2003 7.7998 15.2002H15.1992V7.7998C15.1993 7.35813 15.5574 7.00011 15.999 7Z" fill="#333333"/>
<path d="M15.999 7V6.8H15.999L15.999 7ZM16.7988 7.7998H16.9988V7.79976L16.7988 7.7998ZM16.7988 15.2002H16.5988C16.5988 15.3107 16.6884 15.4002 16.7988 15.4002V15.2002ZM24.2002 15.2002L24.2002 15.0002H24.2002V15.2002ZM25 16H25.2V16L25 16ZM24.2002 16.7998V16.9998H24.2002L24.2002 16.7998ZM16.7988 16.7998V16.5998C16.6884 16.5998 16.5988 16.6893 16.5988 16.7998H16.7988ZM15.999 25L15.999 25.2H15.999V25ZM15.1992 16.7998H15.3992C15.3992 16.6893 15.3097 16.5998 15.1992 16.5998V16.7998ZM7.7998 16.7998L7.79976 16.9998H7.7998V16.7998ZM7 16L6.8 16V16H7ZM7.7998 15.2002V15.0002H7.79976L7.7998 15.2002ZM15.1992 15.2002V15.4002C15.3097 15.4002 15.3992 15.3107 15.3992 15.2002H15.1992ZM15.1992 7.7998L14.9992 7.79976V7.7998H15.1992ZM15.999 7V7.2C16.3303 7.2 16.5987 7.46849 16.5988 7.79985L16.7988 7.7998L16.9988 7.79976C16.9987 7.24765 16.5513 6.8 15.999 6.8V7ZM16.7988 7.7998H16.5988V15.2002H16.7988H16.9988V7.7998H16.7988ZM16.7988 15.2002V15.4002H24.2002V15.2002V15.0002H16.7988V15.2002ZM24.2002 15.2002L24.2001 15.4002C24.5314 15.4003 24.7999 15.6688 24.8 16L25 16L25.2 16C25.1999 15.4479 24.7523 15.0003 24.2002 15.0002L24.2002 15.2002ZM25 16H24.8C24.8 16.3313 24.5315 16.5997 24.2001 16.5998L24.2002 16.7998L24.2002 16.9998C24.7524 16.9997 25.2 16.5523 25.2 16H25ZM24.2002 16.7998V16.5998H16.7988V16.7998V16.9998H24.2002V16.7998ZM16.7988 16.7998H16.5988V24.2002H16.7988H16.9988V16.7998H16.7988ZM16.7988 24.2002H16.5988C16.5988 24.5316 16.3304 24.8 15.999 24.8V25V25.2C16.5513 25.2 16.9988 24.7525 16.9988 24.2002H16.7988ZM15.999 25L15.9991 24.8C15.6677 24.7999 15.3992 24.5315 15.3992 24.2002H15.1992H14.9992C14.9992 24.7525 15.4469 25.1999 15.999 25.2L15.999 25ZM15.1992 24.2002H15.3992V16.7998H15.1992H14.9992V24.2002H15.1992ZM15.1992 16.7998V16.5998H7.7998V16.7998V16.9998H15.1992V16.7998ZM7.7998 16.7998L7.79985 16.5998C7.46849 16.5997 7.2 16.3313 7.2 16H7H6.8C6.8 16.5523 7.24765 16.9997 7.79976 16.9998L7.7998 16.7998ZM7 16L7.2 16C7.20008 15.6688 7.4686 15.4003 7.79985 15.4002L7.7998 15.2002L7.79976 15.0002C7.24766 15.0003 6.80013 15.4479 6.8 16L7 16ZM7.7998 15.2002V15.4002H15.1992V15.2002V15.0002H7.7998V15.2002ZM15.1992 15.2002H15.3992V7.7998H15.1992H14.9992V15.2002H15.1992ZM15.1992 7.7998L15.3992 7.79985C15.3993 7.4686 15.6678 7.20008 15.9991 7.2L15.999 7L15.999 6.8C15.4469 6.80013 14.9994 7.24766 14.9992 7.79976L15.1992 7.7998Z" fill="#333333"/>
</svg>
