<svg width="14" height="14" viewBox="0 0 14 14" fill="none" xmlns="http://www.w3.org/2000/svg">
<rect x="13.333" width="13.3333" height="13.3333" rx="6.66667" transform="rotate(90 13.333 0)" fill="black" fill-opacity="0.12"/>
<path d="M9.28991 3.28944C9.49813 3.08122 9.83552 3.08133 10.0438 3.28944C10.2521 3.49772 10.2521 3.83507 10.0438 4.04335L7.41979 6.66639L10.0428 9.28944C10.2511 9.49772 10.2511 9.83507 10.0428 10.0433C9.83455 10.2516 9.49719 10.2516 9.28893 10.0433L6.66588 7.4203L4.04381 10.0433C3.83553 10.2515 3.49816 10.2516 3.2899 10.0433C3.08182 9.83508 3.08176 9.49767 3.2899 9.28944L5.91198 6.66639L3.28893 4.04335C3.0808 3.83507 3.08074 3.49768 3.28893 3.28944C3.49716 3.08121 3.83454 3.0813 4.04283 3.28944L6.66588 5.91249L9.28991 3.28944Z" fill="white"/>
</svg>
