<svg width="24" height="24" viewBox="0 0 24 24" fill="none" xmlns="http://www.w3.org/2000/svg">
<g clip-path="url(#clip0_134_13195)">
<path d="M19.0412 10.8694H15.1299C14.3401 10.8694 13.8397 10.0227 14.2184 9.32758C14.4456 8.91373 14.6674 8.5053 14.8053 8.2321C15.2706 7.31514 16.0333 5.21885 14.735 3.95566C14.0317 3.27132 13.3555 3.23886 12.8551 3.37411C12.4223 3.49312 12.0571 3.78255 11.8002 4.15041L7.13965 10.8504V21.6863H15.3463C15.8467 21.6863 16.2795 21.5753 16.6474 21.432C17.4751 21.1101 18.1215 20.4474 18.5002 19.6441C19.0277 18.5215 20.3233 15.7734 20.9346 14.026C22.0707 10.7855 19.0412 10.8667 19.0412 10.8667V10.8694Z" stroke="#333333" stroke-width="1.6" stroke-linecap="round" stroke-linejoin="round"/>
<path d="M7.13936 10.8691H2.81152V21.6887H7.13936V10.8691Z" stroke="#333333" stroke-width="1.6" stroke-linecap="round" stroke-linejoin="round"/>
</g>
<defs>
<clipPath id="clip0_134_13195">
<rect width="20" height="20" fill="white" transform="translate(2 2.5)"/>
</clipPath>
</defs>
</svg>
