<svg width="16" height="18" viewBox="0 0 16 18" fill="none" xmlns="http://www.w3.org/2000/svg">
    <path d="M3.08699 11.9263H14.3134V1.76074C14.3134 1.17512 13.8385 0.700195 13.2528 0.700195H4.23612C2.28332 0.700195 0.700195 2.28286 0.700195 4.23602V13.1635C0.700195 13.3782 0.722752 13.5871 0.759092 13.7917C0.997188 12.7241 1.94832 11.9263 3.08699 11.9263Z"
          stroke="white" stroke-width="1.4" stroke-linecap="round" stroke-linejoin="round"/>
    <path d="M3.08699 11.9268C1.94832 11.9268 0.997188 12.7246 0.759092 13.7922C0.721916 13.9601 0.700195 14.1339 0.700195 14.3135C0.700195 15.6318 1.76912 16.7002 3.08699 16.7002H13.2528C13.8385 16.7002 14.3134 16.2249 14.3134 15.6393V11.9268H3.08699Z"
          stroke="white" stroke-width="1.4" stroke-linecap="round" stroke-linejoin="round"/>
    <path d="M13.8713 14.2241H6.53418" stroke="white" stroke-width="1.4" stroke-linecap="round"
          stroke-linejoin="round"/>
</svg>
