<svg width="24" height="24" viewBox="0 0 24 24" fill="none" xmlns="http://www.w3.org/2000/svg">
<g clip-path="url(#clip0_134_13204)">
<path d="M4.95888 14.1321H8.87016C9.65999 14.1321 10.1604 14.9787 9.78171 15.6739C9.5545 16.0877 9.33269 16.4962 9.19475 16.7694C8.7295 17.6863 7.96672 19.7826 9.26507 21.0458C9.96835 21.7301 10.6446 21.7626 11.145 21.6273C11.5778 21.5083 11.9429 21.2189 12.1999 20.851L16.8604 14.151V3.3125H8.65377C8.15336 3.3125 7.72058 3.4234 7.35271 3.56676C6.52501 3.88864 5.87854 4.55134 5.49986 5.3547C4.9724 6.47723 3.67676 9.2254 3.06545 10.9728C1.9294 14.2132 4.95888 14.1321 4.95888 14.1321Z" stroke="#333333" stroke-width="1.6" stroke-linecap="round" stroke-linejoin="round"/>
<path d="M21.1882 3.3125H16.8604V14.1321H21.1882V3.3125Z" stroke="#333333" stroke-width="1.6" stroke-linecap="round" stroke-linejoin="round"/>
</g>
<defs>
<clipPath id="clip0_134_13204">
<rect width="20" height="20" fill="white" transform="translate(2 2.5)"/>
</clipPath>
</defs>
</svg>
