<svg width="32" height="32" viewBox="0 0 32 32" fill="none" xmlns="http://www.w3.org/2000/svg">
<path d="M11.4937 10.5093H23.5633C24.4225 10.5093 24.9744 11.1966 24.7922 12.0349L23.4852 17.9968C23.303 18.8352 22.449 19.5225 21.5899 19.5225H12.811" stroke="#333333" stroke-width="1.6" stroke-linecap="round" stroke-linejoin="round"/>
<path d="M7 6H8.60894C9.46808 6 10.27 6.69773 10.3897 7.54646L12.3996 21.7874" stroke="#333333" stroke-width="1.6" stroke-linecap="round" stroke-linejoin="round"/>
<path d="M15.0814 23.9692C15.0814 25.0939 14.1702 25.9999 13.0507 25.9999C11.9312 25.9999 11.02 25.0887 11.02 23.9692C11.02 22.8497 11.9312 21.9385 13.0507 21.9385C14.1702 21.9385 15.0814 22.8497 15.0814 23.9692Z" stroke="#333333" stroke-width="1.6" stroke-linecap="round" stroke-linejoin="round"/>
<path d="M23.8913 23.9692C23.8913 25.0939 22.9801 25.9999 21.8606 25.9999C20.7411 25.9999 19.8247 25.0887 19.8247 23.9692C19.8247 22.8497 20.7359 21.9385 21.8606 21.9385C22.9853 21.9385 23.8913 22.8497 23.8913 23.9692Z" stroke="#333333" stroke-width="1.6" stroke-linecap="round" stroke-linejoin="round"/>
<path d="M15.2324 23.8911H19.8978" stroke="#333333" stroke-width="1.6" stroke-linecap="round" stroke-linejoin="round"/>
<path d="M23.9015 15.0913H12.3682" stroke="#333333" stroke-width="1.6" stroke-linecap="round" stroke-linejoin="round"/>
</svg>
