<svg width="32" height="40" viewBox="0 0 32 40" fill="none" xmlns="http://www.w3.org/2000/svg">
<path d="M0 0H24V29.263C24 30.8604 22.2197 31.8131 20.8906 30.9271L14.2188 26.4792C12.8752 25.5835 11.1248 25.5835 9.7812 26.4792L3.1094 30.9271C1.78029 31.8131 0 30.8604 0 29.263L0 0Z" fill="url(#paint0_linear_134_14493)"/>
<path d="M0 0H24V29.263C24 30.8604 22.2197 31.8131 20.8906 30.9271L14.2188 26.4792C12.8752 25.5835 11.1248 25.5835 9.7812 26.4792L3.1094 30.9271C1.78029 31.8131 0 30.8604 0 29.263L0 0Z" fill="#6F3FF5"/>
<path d="M0 0H24V29.263C24 30.8604 22.2197 31.8131 20.8906 30.9271L14.2188 26.4792C12.8752 25.5835 11.1248 25.5835 9.7812 26.4792L3.1094 30.9271C1.78029 31.8131 0 30.8604 0 29.263L0 0Z" fill="white" fill-opacity="0.9"/>
<path d="M8 0H32V36.263C32 37.8604 30.2197 38.8131 28.8906 37.9271L22.2188 33.4792C20.8752 32.5835 19.1248 32.5835 17.7812 33.4792L11.1094 37.9271C9.78029 38.8131 8 37.8604 8 36.263V0Z" fill="url(#paint1_linear_134_14493)"/>
<path d="M8 0H32V36.263C32 37.8604 30.2197 38.8131 28.8906 37.9271L22.2188 33.4792C20.8752 32.5835 19.1248 32.5835 17.7812 33.4792L11.1094 37.9271C9.78029 38.8131 8 37.8604 8 36.263V0Z" fill="#D6A0F8"/>
<defs>
<linearGradient id="paint0_linear_134_14493" x1="21.96" y1="4.2" x2="-8.13888" y2="23.801" gradientUnits="userSpaceOnUse">
<stop stop-color="#6F3FF5"/>
<stop offset="1" stop-color="#D6A0F8"/>
</linearGradient>
<linearGradient id="paint1_linear_134_14493" x1="29.96" y1="4.2" x2="-0.138877" y2="23.801" gradientUnits="userSpaceOnUse">
<stop stop-color="#6F3FF5"/>
<stop offset="1" stop-color="#D6A0F8"/>
</linearGradient>
</defs>
</svg>
