<svg width="24" height="24" viewBox="0 0 24 24" fill="none" xmlns="http://www.w3.org/2000/svg">
<rect width="24" height="24" fill="#F5F5F5"/>
<g id="&#235;&#169;&#148;&#236;&#157;&#184;&#237;&#153;&#148;&#235;&#169;&#180; &#62; &#235;&#133;&#188;&#235;&#172;&#184; &#234;&#178;&#128;&#236;&#131;&#137; &#62; &#234;&#178;&#128;&#236;&#131;&#137; &#234;&#178;&#176;&#234;&#179;&#188; &#62; &#236;&#182;&#156;&#236;&#178;&#152; &#236;&#157;&#184;&#236;&#154;&#169; &#235;&#170;&#168;&#235;&#139;&#172;">
<rect width="1920" height="1080" transform="translate(-1200 -548.5)" fill="white"/>
<g id="Frame 2085670611" filter="url(#filter0_d_0_1)">
<rect x="-560" y="-266.5" width="640" height="516" rx="16" fill="white"/>
<g id="Frame 2085670619">
<g id="Frame 2085670612">
<rect x="-520" y="-16.5" width="560" height="121" rx="8" fill="#6F3FF5" fill-opacity="0.05"/>
<g id="Frame 2085670618">
<g id="icon/copy">
<g id="Vector">
<path fill-rule="evenodd" clip-rule="evenodd" d="M6.19995 8.00001C6.19995 7.0059 7.00584 6.20001 7.99995 6.20001H19.2C20.1941 6.20001 21 7.0059 21 8.00001V19.2C21 20.1941 20.1941 21 19.2 21H7.99995C7.00584 21 6.19995 20.1941 6.19995 19.2V8.00001ZM7.99995 7.80001C7.88949 7.80001 7.79995 7.88955 7.79995 8.00001V19.2C7.79995 19.3105 7.88949 19.4 7.99995 19.4H19.2C19.3104 19.4 19.4 19.3105 19.4 19.2V8.00001C19.4 7.88955 19.3104 7.80001 19.2 7.80001H7.99995Z" fill="#999999"/>
<path fill-rule="evenodd" clip-rule="evenodd" d="M3.00073 4.79982C3.00073 3.8057 3.80662 2.99982 4.80073 2.99982H18.2C18.6418 2.99982 19 3.35799 19 3.79982C19 4.24164 18.6418 4.59982 18.2 4.59982H4.80073C4.69027 4.59982 4.60073 4.68936 4.60073 4.79982V18.2C4.60073 18.6418 4.24256 19 3.80073 19C3.3589 19 3.00073 18.6418 3.00073 18.2V4.79982Z" fill="#999999"/>
</g>
</g>
</g>
</g>
</g>
</g>
</g>
<defs>
<filter id="filter0_d_0_1" x="-580" y="-284.5" width="680" height="556" filterUnits="userSpaceOnUse" color-interpolation-filters="sRGB">
<feFlood flood-opacity="0" result="BackgroundImageFix"/>
<feColorMatrix in="SourceAlpha" type="matrix" values="0 0 0 0 0 0 0 0 0 0 0 0 0 0 0 0 0 0 127 0" result="hardAlpha"/>
<feOffset dy="2"/>
<feGaussianBlur stdDeviation="10"/>
<feComposite in2="hardAlpha" operator="out"/>
<feColorMatrix type="matrix" values="0 0 0 0 0.435294 0 0 0 0 0.247059 0 0 0 0 0.960784 0 0 0 0.15 0"/>
<feBlend mode="normal" in2="BackgroundImageFix" result="effect1_dropShadow_0_1"/>
<feBlend mode="normal" in="SourceGraphic" in2="effect1_dropShadow_0_1" result="shape"/>
</filter>
</defs>
</svg>
