<svg width="25" height="25" viewBox="0 0 25 25" fill="none" xmlns="http://www.w3.org/2000/svg">
<rect width="25" height="25" fill="#F5F5F5"/>
<g id="&#235;&#169;&#148;&#236;&#157;&#184;&#237;&#153;&#148;&#235;&#169;&#180; &#62; &#235;&#133;&#188;&#235;&#172;&#184; &#234;&#178;&#128;&#236;&#131;&#137; &#62; &#234;&#178;&#128;&#236;&#131;&#137; &#234;&#178;&#176;&#234;&#179;&#188;" clip-path="url(#clip0_0_1)">
<rect width="1920" height="2673" transform="translate(-1841 -853)" fill="white"/>
<g id="contents" filter="url(#filter0_d_0_1)">
<g id="Frame 2085670603">
<rect x="-1471" y="-717" width="1528" height="2513" rx="24" fill="white"/>
<g id="Frame 2085670609">
<g id="Frame 2087328215">
<mask id="path-3-inside-1_0_1" fill="white">
<path d="M-1447 -48H33V106H-1447V-48Z"/>
</mask>
<path d="M33 106V105H-1447V106V107H33V106Z" fill="black" fill-opacity="0.12" mask="url(#path-3-inside-1_0_1)"/>
<g id="Frame 2087328208">
<g id="Frame 2087328213">
<g id="Frame 2085670617">
<g id="Frame 2085670605">
<rect x="-7.5" y="-7.5" width="40" height="40" rx="7.5" fill="white"/>
<rect x="-7.5" y="-7.5" width="40" height="40" rx="7.5" stroke="#6F3FF5"/>
<g id="Frame 2087328240">
<g id="Group">
<path id="Vector" d="M11.8005 7.5V10.171C11.0648 10.171 10.5107 10.2756 10.1378 10.4844C9.75643 10.7117 9.52013 10.9708 9.42934 11.2606C9.32882 11.552 9.26964 12.1288 9.2518 12.9917H11.8001V17.9658H5V13.7277C5 12.192 5.05432 11.1475 5.16375 10.5938C5.27238 10.03 5.59015 9.47106 6.11747 8.91699C6.64398 8.38115 7.28438 8.00907 8.03909 7.79912C8.77434 7.5997 10.0288 7.5 11.8005 7.5ZM21 7.5V10.171C20.2729 10.171 19.7232 10.2756 19.3503 10.4844C18.9604 10.702 18.7193 10.961 18.6285 11.2606C18.5284 11.5605 18.4732 12.1381 18.4651 12.9917H21V17.9658H14.2125V13.7277C14.2125 12.192 14.2672 11.1475 14.3763 10.5938C14.4853 10.03 14.8035 9.47106 15.3304 8.91699C15.8569 8.38115 16.4973 8.00907 17.252 7.79912C17.9864 7.5997 19.236 7.5 20.9996 7.5H21Z" fill="#6F3FF5"/>
</g>
</g>
</g>
</g>
</g>
</g>
</g>
</g>
</g>
</g>
</g>
<defs>
<filter id="filter0_d_0_1" x="-1531" y="-889" width="1648" height="2745" filterUnits="userSpaceOnUse" color-interpolation-filters="sRGB">
<feFlood flood-opacity="0" result="BackgroundImageFix"/>
<feColorMatrix in="SourceAlpha" type="matrix" values="0 0 0 0 0 0 0 0 0 0 0 0 0 0 0 0 0 0 127 0" result="hardAlpha"/>
<feMorphology radius="16" operator="dilate" in="SourceAlpha" result="effect1_dropShadow_0_1"/>
<feOffset/>
<feGaussianBlur stdDeviation="22"/>
<feComposite in2="hardAlpha" operator="out"/>
<feColorMatrix type="matrix" values="0 0 0 0 0.545098 0 0 0 0 0.498039 0 0 0 0 0.878431 0 0 0 0.05 0"/>
<feBlend mode="darken" in2="BackgroundImageFix" result="effect1_dropShadow_0_1"/>
<feBlend mode="normal" in="SourceGraphic" in2="effect1_dropShadow_0_1" result="shape"/>
</filter>
<clipPath id="clip0_0_1">
<rect width="1920" height="2673" fill="white" transform="translate(-1841 -853)"/>
</clipPath>
</defs>
</svg>
