<svg width="18" height="20" viewBox="0 0 18 20" fill="none" xmlns="http://www.w3.org/2000/svg">
    <path d="M0.700696 15.1964V17.9285C0.700696 18.0598 0.727547 18.1851 0.775287 18.2985C0.823525 18.4124 0.893148 18.5148 0.979181 18.6004C1.06521 18.6869 1.16716 18.7565 1.28154 18.8042C1.39492 18.8525 1.51974 18.8788 1.65152 18.8788H15.7499C15.8811 18.8788 16.0065 18.852 16.1199 18.8042C16.2337 18.7565 16.3357 18.6869 16.4217 18.6004C16.5077 18.5148 16.5779 18.4124 16.6256 18.2985C16.6743 18.1851 16.7002 18.0598 16.7002 17.9285V4.67856L15.7056 3.68397L14.7115 2.68938L13.7169 1.69479L12.7223 0.700195H1.65103C1.51925 0.700195 1.39442 0.726549 1.28104 0.774787C1.16666 0.823024 1.06421 0.89215 0.97868 0.97868C0.892648 1.06471 0.823024 1.16665 0.774787 1.28054C0.726549 1.39442 0.700195 1.51923 0.700195 1.65052V15.1959L0.700696 15.1964Z"
          stroke="white" stroke-width="1.4" stroke-linecap="round" stroke-linejoin="round"/>
    <path d="M14.6559 5.71352H12.0098V3.06592" stroke="white" stroke-width="1.4" stroke-linecap="round"
          stroke-linejoin="round"/>
</svg>
