<svg width="81" height="19" viewBox="0 0 81 19" fill="none" xmlns="http://www.w3.org/2000/svg">
<path d="M12.3443 3.11971C11.7765 3.06076 11.1898 3.00652 10.5773 2.95701C9.96706 2.90513 9.36392 2.86976 8.76785 2.84854C8.17178 2.82731 7.59455 2.81552 7.03382 2.81552C6.47309 2.81552 5.95477 2.83675 5.47414 2.88155C3.94744 3.0136 3.18409 3.61725 3.18409 4.69251C3.18409 5.0698 3.2642 5.39521 3.42441 5.66402C3.58462 5.93284 3.80137 6.16628 4.07938 6.362C4.35503 6.55771 4.67545 6.73221 5.03828 6.88548C5.4011 7.03875 5.79456 7.18731 6.21628 7.33351L9.37806 8.46772C10.033 8.70116 10.6126 8.9629 11.1215 9.25294C11.6304 9.54533 12.0616 9.88489 12.4197 10.2787C12.7754 10.6725 13.044 11.1252 13.2254 11.6416C13.4068 12.158 13.4987 12.7523 13.4987 13.4196C13.4987 14.832 13.0817 15.9356 12.2453 16.7373C11.4089 17.5367 10.2286 17.9965 8.70188 18.112C7.39429 18.2134 6.07728 18.2394 4.75555 18.1875C3.43383 18.1356 2.08855 18.046 0.722058 17.914V15.2518C1.8553 15.3673 2.96498 15.4546 4.0464 15.5135C5.12781 15.5725 6.21628 15.5866 7.30712 15.5559C7.75712 15.5418 8.18356 15.5088 8.58173 15.4569C8.98225 15.405 9.33094 15.3036 9.6278 15.1504C9.92465 14.9971 10.1626 14.7825 10.337 14.5066C10.5113 14.2307 10.5985 13.8676 10.5985 13.4149C10.5985 13.0376 10.5137 12.7027 10.3487 12.4103C10.1815 12.1203 9.96235 11.868 9.69376 11.6581C9.42518 11.4483 9.1189 11.2691 8.77728 11.1229C8.43565 10.9767 8.10345 10.854 7.78539 10.7526L5.01707 9.83537C4.30556 9.60193 3.6388 9.3449 3.02153 9.05958C2.40425 8.77662 1.86944 8.43706 1.41944 8.04563C0.969438 7.65184 0.616036 7.20146 0.361586 6.69212C0.107136 6.18279 -0.0130201 5.58621 0.00111601 4.90238C0.0152521 4.07235 0.156614 3.37202 0.427556 2.79666C0.696142 2.2213 1.07075 1.75677 1.55138 1.40071C2.032 1.04465 2.60922 0.782905 3.2854 0.615485C3.96158 0.448065 4.71315 0.341954 5.54246 0.29951C6.66157 0.240559 7.78539 0.233485 8.91157 0.278287C10.0377 0.32309 11.1828 0.400904 12.3466 0.518806V3.11499L12.3443 3.11971Z" fill="#333333"/>
<path d="M22.5056 7.87806L29.6349 17.7841C29.6631 17.8289 29.6749 17.8902 29.6679 17.9704C29.6608 18.0506 29.5995 18.0907 29.4817 18.0907H26.0796L20.5854 10.038L18.8844 11.8702V17.7393C18.8844 18.0011 18.7689 18.1331 18.5357 18.1331H15.7886V0.348877H18.8844V7.68234L25.2291 0.39368H29.2838L22.5032 7.87806H22.5056Z" fill="#333333"/>
<path d="M37.2334 18.4398C36.0695 18.4398 35.0541 18.2771 34.18 17.9493C33.3083 17.6215 32.5732 17.1712 31.9771 16.5958C31.381 16.0204 30.931 15.3437 30.6248 14.5655C30.3185 13.7874 30.1677 12.9479 30.1677 12.0448L30.1465 6.72038C30.1465 5.81961 30.2949 4.96129 30.5941 4.14541C30.891 3.33189 31.3386 2.61741 31.9347 2.00668C32.5308 1.39595 33.2729 0.90784 34.1588 0.544704C35.0446 0.181568 36.0695 0 37.2334 0C39.4575 0 41.1585 0.596581 42.3365 1.78974C43.5145 2.9829 44.1035 4.62645 44.1035 6.72273V12.0259C44.1035 13.087 43.9292 14.0185 43.5805 14.8202C43.2318 15.6196 42.7488 16.2892 42.1315 16.8269C41.5143 17.3645 40.7862 17.7677 39.9522 18.0389C39.1158 18.3077 38.2111 18.4421 37.2381 18.4421L37.2334 18.4398ZM37.2334 2.61741C35.9541 2.61741 34.9504 3.00648 34.2247 3.78463C33.4967 4.56278 33.1339 5.60739 33.1339 6.91609V11.8043C33.1339 12.4292 33.2352 12.9927 33.4402 13.495C33.6428 13.9972 33.9279 14.4264 34.2907 14.7825C34.6535 15.1385 35.087 15.4121 35.5889 15.6007C36.0907 15.7893 36.6397 15.8837 37.2357 15.8837C38.4561 15.8837 39.4315 15.5347 40.1572 14.8367C40.8828 14.1387 41.248 13.1271 41.248 11.8043V6.91609C41.248 5.60739 40.8993 4.56278 40.202 3.78463C39.5046 3.00648 38.515 2.61741 37.2357 2.61741H37.2334Z" fill="#333333"/>
<path d="M53.6521 17.6757C53.5932 17.8219 53.506 17.9327 53.3906 18.0129C53.2751 18.093 53.1502 18.1331 53.0207 18.1331H50.667L44.605 0.348877H47.8539L51.9534 13.5302C51.9817 13.6033 52.0335 13.6387 52.1065 13.6387C52.1796 13.6387 52.229 13.6033 52.2597 13.5302L56.2932 0.348877H59.5633L53.6544 17.6757H53.6521Z" fill="#333333"/>
<path d="M64.4239 17.7629C64.4239 18.0247 64.3085 18.1567 64.0752 18.1567H61.3281V0.391357H64.4239V17.7629Z" fill="#333333"/>
<path d="M75.2145 9.1657L80.9043 17.9163C81.0056 18.0625 80.9773 18.1356 80.8171 18.1356H77.5022L73.5558 11.9152L69.6967 17.9376C69.6095 18.0696 69.4846 18.1333 69.3268 18.1333H66.0566L71.8784 9.22937L66.165 0.34668H69.5883L73.643 6.50113L77.4598 0.34668H80.9255L75.2121 9.16334L75.2145 9.1657Z" fill="#333333"/>
</svg>
