<svg width="33" height="32" viewBox="0 0 33 32" fill="none" xmlns="http://www.w3.org/2000/svg">
<g clip-path="url(#clip0_118_6736)">
<path d="M29.6869 3.27923L28.4621 0L27.2373 3.27923L23.9277 4.49283L27.2373 5.70643L28.4621 8.98566L29.6869 5.70643L32.9996 4.49283L29.6869 3.27923Z" fill="#D6D7F8"/>
<path d="M18.7688 30.5452C18.7688 30.3031 18.6069 30.0925 18.3721 30.0296L4.29317 26.197L4.02346 26.1247C3.78865 26.0618 3.62683 25.8512 3.62683 25.6091V9.44558C3.62683 9.17519 3.42375 8.94882 3.15087 8.91424L0.602885 8.60926C0.282404 8.57154 0 8.81991 0 9.14061V29.3505C0 29.6209 0.203077 29.8472 0.475962 29.8818L18.1659 31.9977C18.4863 32.0355 18.7688 31.7871 18.7688 31.4664V30.5452Z" fill="#6F3FF5"/>
<path d="M8.01566 22.0008C7.82845 21.9128 7.70787 21.7242 7.70787 21.5198V5.29657C7.70787 5.06706 7.55874 4.8627 7.33662 4.79038L5.78181 4.28105C5.43278 4.16786 5.07422 4.42253 5.07422 4.78724V24.4092C5.07422 24.6418 5.22335 24.8462 5.44547 24.9185L18.7692 29.2101L20.3558 29.6408C20.6985 29.7352 21.038 29.4774 21.038 29.1252V28.5027C21.038 28.2983 20.9174 28.1097 20.7302 28.0217L18.7692 27.0942L8.22508 22.1014L8.01566 22.004V22.0008Z" fill="url(#paint0_linear_118_6736)"/>
<path d="M9.1543 4.22335V20.434C9.1543 20.6289 9.26218 20.8081 9.4367 20.9025L21.0248 27.1591C21.0248 27.1591 21.0406 27.1685 21.0502 27.1717L21.945 27.5961L22.0814 27.659C22.44 27.8288 22.8525 27.571 22.8525 27.178V7.07184C22.8525 6.86748 22.7351 6.68198 22.5542 6.59395L9.93487 0.384477C9.57632 0.208411 9.1543 0.466222 9.1543 0.862371V4.22335Z" fill="#D6A0F8"/>
</g>
<defs>
<linearGradient id="paint0_linear_118_6736" x1="1.92653" y1="28.553" x2="21.8653" y2="7.38661" gradientUnits="userSpaceOnUse">
<stop stop-color="#6F3FF5"/>
<stop offset="0.5" stop-color="#A26FF6"/>
<stop offset="1" stop-color="#D6A0F8"/>
</linearGradient>
<clipPath id="clip0_118_6736">
<rect width="33" height="32" fill="white"/>
</clipPath>
</defs>
</svg>
