<?xml version="1.0" encoding="UTF-8"?>
<svg id="_레이어_2" data-name="레이어 2" xmlns="http://www.w3.org/2000/svg" xmlns:xlink="http://www.w3.org/1999/xlink" viewBox="0 0 104 101.78">
  <defs>
    <style>
      .cls-1 {
        fill: #4f46e5;
      }

      .cls-2 {
        fill: url(#_무제_그라디언트_54);
      }

      .cls-3 {
        fill: #9490ef;
      }

      .cls-4 {
        fill: #d6d7f8;
      }
    </style>
    <linearGradient id="_무제_그라디언트_54" data-name="무제 그라디언트 54" x1="11.55" y1="85.04" x2="94.6" y2="-2.3" gradientUnits="userSpaceOnUse">
      <stop offset="0" stop-color="#4f46e5"/>
      <stop offset=".51" stop-color="#9490ef"/>
      <stop offset="1" stop-color="#d6d7f8"/>
    </linearGradient>
  </defs>
  <g id="_레이어_1-2" data-name="레이어 1">
    <g>
      <polygon class="cls-4" points="93.56 10.43 89.7 0 85.84 10.43 75.41 14.29 85.84 18.15 89.7 28.58 93.56 18.15 104 14.29 93.56 10.43"/>
      <g>
        <path class="cls-1" d="M59.15,97.15c0-.77-.51-1.44-1.25-1.64l-44.37-12.19-.85-.23c-.74-.2-1.25-.87-1.25-1.64V30.04c0-.86-.64-1.58-1.5-1.69l-8.03-.97c-1.01-.12-1.9.67-1.9,1.69v64.28c0,.86.64,1.58,1.5,1.69l55.75,6.73c1.01.12,1.9-.67,1.9-1.69v-2.93Z"/>
        <path class="cls-2" d="M25.26,69.97c-.59-.28-.97-.88-.97-1.53V16.84c0-.73-.47-1.38-1.17-1.61l-4.9-1.62c-1.1-.36-2.23.45-2.23,1.61v62.41c0,.74.47,1.39,1.17,1.62l41.99,13.65,5,1.37c1.08.3,2.15-.52,2.15-1.64v-1.98c0-.65-.38-1.25-.97-1.53l-6.18-2.95-33.23-15.88-.66-.31Z"/>
        <path class="cls-3" d="M28.85,13.43v51.56c0,.62.34,1.19.89,1.49l36.52,19.9s.05.03.08.04l2.82,1.35.43.2c1.13.54,2.43-.28,2.43-1.53V22.49c0-.65-.37-1.24-.94-1.52L31.31,1.22c-1.13-.56-2.46.26-2.46,1.52v10.69Z"/>
      </g>
    </g>
  </g>
</svg>