<?xml version="1.0" encoding="UTF-8"?>
<svg id="_레이어_1" data-name="레이어 1" xmlns="http://www.w3.org/2000/svg" viewBox="0 0 196.7 26.26">
  <defs>
    <style>
      .cls-1 {
        fill: #221e1f;
      }

      .cls-2 {
        fill: #e95040;
      }
    </style>
  </defs>
  <g>
    <path class="cls-1" d="M120.58,14.42c-.83-.59-1.8-1.14-2.89-1.63-1.07-.48-2.21-.94-3.41-1.37-1.15-.42-2.17-.8-3.05-1.15-.86-.34-1.59-.69-2.18-1.05-.55-.34-.97-.7-1.25-1.09-.26-.37-.38-.8-.38-1.32s.16-.99.5-1.36c.37-.41.85-.75,1.45-1.01.62-.27,1.34-.47,2.14-.6.82-.12,1.65-.19,2.47-.19,2.97,0,5.43.48,7.31,1.44l.73.37V1.1l-.32-.12c-1.57-.6-3.96-.9-7.32-.9-1.46,0-2.91.13-4.31.4-1.42.27-2.7.68-3.81,1.23-1.14.56-2.08,1.29-2.78,2.16-.73.91-1.11,1.98-1.11,3.2,0,1,.24,1.88.71,2.63.46.72,1.09,1.38,1.88,1.94.77.55,1.68,1.06,2.7,1.51,1,.44,2.1.88,3.26,1.31,1.09.41,2.11.79,3.06,1.16.92.36,1.73.73,2.39,1.12.64.37,1.14.78,1.49,1.21.32.4.48.85.48,1.4,0,1.03-.49,1.81-1.51,2.37-1.1.61-2.82.91-5.11.91-.68,0-1.42-.05-2.2-.15-.79-.1-1.59-.24-2.39-.42-.79-.18-1.54-.41-2.25-.67-.7-.26-1.3-.55-1.79-.87l-.77-.5v4.58l.28.14c.46.23,1.08.44,1.83.62.73.18,1.51.33,2.32.45.81.12,1.62.21,2.39.27.78.06,1.45.09,1.98.09,1.59,0,3.13-.12,4.57-.35,1.46-.24,2.77-.63,3.89-1.17,1.15-.55,2.08-1.28,2.77-2.17.7-.92,1.06-2.04,1.06-3.35,0-1-.27-1.91-.79-2.68-.5-.75-1.18-1.43-2.03-2.04Z"/>
    <path class="cls-1" d="M137.23.07c-3.77,0-6.8,1.23-9,3.66-2.19,2.41-3.3,5.67-3.3,9.69,0,3.75,1.09,6.84,3.24,9.2,2.16,2.37,5.07,3.57,8.65,3.57s6.62-1.22,8.81-3.62c2.18-2.39,3.28-5.67,3.28-9.74,0-3.76-1.08-6.85-3.21-9.2-2.14-2.36-4.99-3.55-8.48-3.55ZM144.93,13.21c0,2.99-.73,5.33-2.18,6.97-1.45,1.64-3.39,2.44-5.93,2.44-2.37,0-4.23-.84-5.7-2.56-1.47-1.72-2.21-4.04-2.21-6.9s.76-5.18,2.27-6.92c1.51-1.74,3.42-2.59,5.84-2.59s4.38.8,5.79,2.45c1.41,1.65,2.12,4.04,2.12,7.12Z"/>
    <polygon class="cls-1" points="155.57 4.06 170.87 4.06 170.87 .48 151.72 .48 151.72 25.78 155.57 25.78 155.57 15.02 171.13 15.02 171.13 11.46 155.57 11.46 155.57 4.06"/>
    <polygon class="cls-1" points="173.02 .48 173.02 4.06 182.93 4.06 182.93 25.78 186.78 25.78 186.78 4.06 196.7 4.06 196.7 .48 173.02 .48"/>
  </g>
  <path class="cls-2" d="M92.6.15c3.71,0,5.56,1.49,5.56,4.47v17c0,2.98-1.85,4.47-5.56,4.47h-16.03V.15h16.03ZM82.14,4.63v17h8.24c1.48,0,2.23-.6,2.23-1.79V6.42c0-1.19-.74-1.79-2.23-1.79h-8.24Z"/>
  <path class="cls-2" d="M22.06,26.24H0V.02h5.22v21.6h16.84v4.61Z"/>
  <path class="cls-2" d="M67.72,0h-16.83v26.26h5.23V4.53h9.51c1.39,0,2.09.6,2.09,1.81v19.92h5.23V4.53c0-3.02-1.74-4.53-5.23-4.53Z"/>
  <polygon class="cls-2" points="28.83 26.24 36.48 7.38 44.12 26.24 49.35 26.24 38.73 .02 34.23 .02 23.6 26.24 28.83 26.24"/>
</svg>